<svg xmlns="http://www.w3.org/2000/svg" width="96" height="96" viewBox="0 0 96 96" shape-rendering="crispEdges">
  <path d="M72 6H71V7H72ZM72 83H71V84H72Z" fill="#282830" fill-opacity="0.027450980392156862" fill-rule="evenodd"/>
  <path d="M17 6H16V7H17ZM15 7H14V8H15ZM13 8H12V9H13ZM9 12H8V13H9ZM8 14H7V15H8ZM7 16H6V17H7ZM7 73H6V74H7ZM8 75H7V76H8ZM9 77H8V78H9ZM42 78H41V79H42ZM40 79H39V80H40ZM38 80H37V81H38ZM13 81H12V82H13ZM36 81H35V82H36ZM49 81H48V82H49ZM15 82H14V83H15ZM34 82H33V83H34ZM51 82H50V83H51ZM17 83H16V84H17ZM32 83H31V84H32ZM53 83H52V84H53Z" fill="#282830" fill-opacity="0.24705882352941178" fill-rule="evenodd"/>
  <path d="M43 78H42V79H43ZM45 79H44V80H45ZM47 80H46V81H47Z" fill="#dc3c3c" fill-opacity="0.24705882352941178" fill-rule="evenodd"/>
  <path d="M12 9H11V10H12ZM11 10H10V11H11ZM10 11H9V12H10ZM10 78H9V79H10ZM11 79H10V80H11ZM12 80H11V81H12Z" fill="#282830" fill-opacity="0.4980392156862745" fill-rule="evenodd"/>
  <path d="M71 6H70V7H71ZM72 7H71V8H72ZM72 82H71V83H72ZM71 83H70V84H71Z" fill="#282830" fill-opacity="0.5764705882352941" fill-rule="evenodd"/>
  <path d="M18 6H17V7H18ZM16 7H15V8H16ZM14 8H13V9H14ZM9 13H8V14H9ZM8 15H7V16H8ZM7 17H6V18H7ZM7 72H6V73H7ZM8 74H7V75H8ZM9 76H8V77H9ZM41 78H40V79H41ZM39 79H38V80H39ZM37 80H36V81H37ZM14 81H13V82H14ZM35 81H34V82H35ZM50 81H49V82H50ZM16 82H15V83H16ZM33 82H32V83H33ZM52 82H51V83H52ZM18 83H17V84H18ZM31 83H30V84H31ZM54 83H53V84H54Z" fill="#282830" fill-opacity="0.7490196078431373" fill-rule="evenodd"/>
  <path d="M44 78H43V79H44ZM46 79H45V80H46ZM48 80H47V81H48Z" fill="#dc3c3c" fill-opacity="0.7490196078431373" fill-rule="evenodd"/>
  <path d="M70 6H69V7H70ZM72 8H71V9H72ZM72 81H71V82H72ZM70 83H69V84H70Z" fill="#282830" fill-opacity="0.9372549019607843" fill-rule="evenodd"/>
  <path d="M21 48V49H19V51H18V57H19V59H21V60H27V59H29V57H30V51H29V49H27V48ZM39 48V49H37V51H36V57H37V59H39V60H45V59H47V57H48V51H47V49H45V48Z" fill="#141419" fill-rule="evenodd"/>
  <path d="M21 48H20V49H21ZM28 48H27V49H28ZM39 48H38V49H39ZM46 48H45V49H46ZM19 50H18V51H19ZM30 50H29V51H30ZM37 50H36V51H37ZM48 50H47V51H48ZM19 57H18V58H19ZM30 57H29V58H30ZM37 57H36V58H37ZM48 57H47V58H48ZM21 59H20V60H21ZM28 59H27V60H28ZM39 59H38V60H39ZM46 59H45V60H46Z" fill="#20161b" fill-rule="evenodd"/>
  <path d="M18 6V7H16V8H14V9H12V10H11V11H10V12H9V14H8V16H7V18H6V72H7V74H8V76H9V78H10V79H11V80H12V81H14V82H16V83H18V84H30V83H32V82H34V81H36V80H38V79H40V78H14V77H13V76H12V14H13V13H14V12H66V78H48V81H50V82H52V83H54V84H69V83H71V81H72V9H71V7H69V6Z" fill="#282830"/>
  <path d="M66 12H65V13H66ZM66 77H65V78H66Z" fill="#2d2830" fill-rule="evenodd"/>
  <path d="M20 48H19V49H20ZM29 48H28V49H29ZM38 48H37V49H38ZM47 48H46V49H47ZM19 49H18V50H19ZM30 49H29V50H30ZM37 49H36V50H37ZM48 49H47V50H48ZM19 58H18V59H19ZM30 58H29V59H30ZM37 58H36V59H37ZM48 58H47V59H48ZM20 59H19V60H20ZM29 59H28V60H29ZM38 59H37V60H38ZM47 59H46V60H47Z" fill="#682427" fill-rule="evenodd"/>
  <path d="M15 12H14V13H15ZM14 13H13V14H14ZM13 14H12V15H13ZM13 75H12V76H13ZM14 76H13V77H14ZM15 77H14V78H15Z" fill="#823236" fill-rule="evenodd"/>
  <path d="M65 12H64V13H65ZM66 13H65V14H66ZM66 76H65V77H66ZM65 77H64V78H65Z" fill="#903336" fill-rule="evenodd"/>
  <path d="M64 12H63V13H64ZM66 14H65V15H66ZM66 75H65V76H66ZM64 77H63V78H64Z" fill="#d13a3b" fill-rule="evenodd"/>
  <path d="M19 48H18V49H19ZM30 48H29V49H30ZM37 48H36V49H37ZM48 48H47V49H48ZM19 59H18V60H19ZM30 59H29V60H30ZM37 59H36V60H37ZM48 59H47V60H48Z" fill="#d63a3a" fill-rule="evenodd"/>
  <path d="M15 12V13H14V14H13V15H12V75H13V76H14V77H15V78H44V79H46V80H48V78H63V77H65V75H66V15H65V13H63V12ZM18 24H54V42H18ZM18 48H30V60H18ZM36 48H48V60H36Z" fill="#dc3c3c" fill-rule="evenodd"/>
  <path d="M19 24H18V25H19ZM54 24H53V25H54ZM19 41H18V42H19ZM54 41H53V42H54Z" fill="#dc4141" fill-rule="evenodd"/>
  <path d="M20 24H19V25H20ZM53 24H52V25H53ZM19 25H18V26H19ZM54 25H53V26H54ZM19 40H18V41H19ZM54 40H53V41H54ZM20 41H19V42H20ZM53 41H52V42H53Z" fill="#e7a4a7" fill-rule="evenodd"/>
  <path d="M21 24H20V25H21ZM52 24H51V25H52ZM19 26H18V27H19ZM54 26H53V27H54ZM19 39H18V40H19ZM54 39H53V40H54ZM21 41H20V42H21ZM52 41H51V42H52Z" fill="#eee5e9" fill-rule="evenodd"/>
  <path d="M21 24V25H19V27H18V39H19V41H21V42H51V41H53V39H54V27H53V25H51V24Z" fill="#f0f0f5"/>
</svg>
